<svg xmlns="http://www.w3.org/2000/svg" width="41" height="42" viewBox="0 0 41 42" fill="none">
  <g clip-path="url(#clip0_240_2386)">
    <mask id="mask0_240_2386" style="mask-type:alpha" maskUnits="userSpaceOnUse" x="-7" y="5" width="42" height="43">
      <path fill-rule="evenodd" clip-rule="evenodd" d="M28.5893 28.91C32.2753 26.7007 34.7424 22.6668 34.7424 18.0567C34.7424 11.0734 29.0813 5.41235 22.098 5.41235C17.1656 5.41235 12.8928 8.23657 10.8085 12.3561L-6.97412 30.1388L10.1932 47.3061L28.5893 28.91Z" fill="#795E5E"/>
    </mask>
    <g mask="url(#mask0_240_2386)">
      <path fill-rule="evenodd" clip-rule="evenodd" d="M21.8091 4.4957L21.8156 4.48905C19.8224 4.5264 17.8971 5.06341 16.2414 6.11363C14.9996 7.4339 13.7845 8.78078 12.6085 10.1645C11.3282 11.6677 10.0932 13.2118 8.91844 14.8072C8.48135 15.4064 8.05076 16.0143 7.64423 16.6463C8.27624 16.2398 8.88418 15.8092 9.48341 15.3721C10.1904 14.8501 10.8883 14.3169 11.5761 13.7735C14.9379 11.1211 18.0878 8.21692 21.1134 5.20397C21.3458 4.96908 21.5769 4.73294 21.8091 4.4957ZM20.3163 12.3905C22.559 10.1225 24.7809 7.82713 26.9399 5.47554C26.0385 5.10773 25.1131 4.8423 24.1866 4.68195C22.1884 6.54336 20.2284 8.44514 18.2895 10.3637C16.0587 12.6148 13.8499 14.8945 11.704 17.2304C8.59221 20.6133 5.60643 24.1134 2.86131 27.8187C6.20863 25.3378 9.39047 22.6627 12.4665 19.8729C15.1475 17.4453 17.7506 14.9334 20.3163 12.3905ZM30.7893 7.81711C27.6242 11.3217 24.342 14.7179 21.0201 18.0702C19.0274 20.0477 17.0194 22.0101 14.9821 23.941C10.5322 28.1603 5.94382 32.2344 1.07399 35.9895C4.91495 31.0085 9.09 26.3217 13.4128 21.776C15.2514 19.8436 17.1154 17.9365 18.9933 16.0434C22.2625 12.8046 25.5743 9.60173 28.9857 6.50956C29.6093 6.89178 30.2128 7.32699 30.7893 7.81711ZM33.7755 11.2482C33.3889 10.629 32.9481 10.0311 32.4548 9.46028C28.948 12.6276 25.5485 15.9131 22.194 19.2372C20.2153 21.2311 18.2508 23.2412 16.3177 25.2807C12.0995 29.7295 8.02882 34.317 4.27467 39.1833C9.24669 35.3488 13.927 31.1828 18.465 26.8678C20.4051 25.0214 22.3199 23.1497 24.2208 21.264C27.4674 17.987 30.6769 14.6686 33.7755 11.2482ZM34.8179 13.281C35.1932 14.17 35.4673 15.0841 35.6387 15.9995C33.7577 18.0224 31.8314 20.0044 29.8909 21.9678C27.6177 24.2207 25.3145 26.4504 22.9541 28.6183C19.5933 31.708 16.1152 34.6692 12.4359 37.396C14.9047 34.0632 17.5678 30.896 20.3454 27.8321C22.7827 25.1364 25.3079 22.52 27.8641 19.941C30.1442 17.6862 32.4518 15.4521 34.8179 13.281ZM34.4825 23.6818C35.3951 22.07 35.8495 20.2348 35.8557 18.3412C35.5829 18.6064 35.3113 18.8729 35.0421 19.1396C31.9948 22.1995 29.06 25.3852 26.3833 28.789C25.8706 29.4411 25.3678 30.1009 24.874 30.7696C24.4358 31.3699 24.0063 31.9767 23.5998 32.6087C24.2318 32.2022 24.8397 31.7716 25.4389 31.3345C26.9047 30.2538 28.3294 29.1231 29.7182 27.9521C31.351 26.5778 32.9351 25.1482 34.4825 23.6818Z" fill="url(#paint0_linear_240_2386)"/>
    </g>
  </g>
  <defs>
    <linearGradient id="paint0_linear_240_2386" x1="29.0898" y1="81.8463" x2="70.8783" y2="32.0523" gradientUnits="userSpaceOnUse">
      <stop stop-color="#FF2189"/>
      <stop offset="1" stop-color="#FF9D00"/>
    </linearGradient>
    <clipPath id="clip0_240_2386">
      <rect width="40.3183" height="40.4859" fill="white" transform="translate(0 0.75708)"/>
    </clipPath>
  </defs>
</svg>
